PathFileType	4	(X/Y/Z)	C:\Users\WrightLab\Desktop\Jo\P1.2Trial3.trc
DataRate	CameraRate	NumFrames	NumMarkers	Units	OrigDataRate	OrigDataStartFrame	OrigNumFrames
100.00	100.00	       77	19	mm	100.00	576	       658
Frame#	Time	Headset_Front			Headset_Back			Headset_Left			Headset_Right			Left_Shoulder			Right_Shoulder			Sternum			C7			Left Elbow			Right Elbow			Left Wrist			Right Wrist			Left ASIS			Right ASIS			S2			Left Knee			Right Knee			Left Ankle			Right Ankle			
		X1	Y1	Z1	X2	Y2	Z2	X3	Y3	Z3	X4	Y4	Z4	X5	Y5	Z5	X6	Y6	Z6	X7	Y7	Z7	X8	Y8	Z8	X9	Y9	Z9	X10	Y10	Z10	X11	Y11	Z11	X12	Y12	Z12	X13	Y13	Z13	X14	Y14	Z14	X15	Y15	Z15	X16	Y16	Z16	X17	Y17	Z17	X18	Y18	Z18	X19	Y19	Z19	

576	5.750	-144.04160	1518.62549	2151.10278	-141.77353	1318.61865	2152.35107							-267.48029	1297.81482	2360.50317				-392.33319	1235.29541	2146.33984	-224.12059	1016.54077	2443.20044							-327.55191	828.04181	2544.79272	-464.78922	817.59448	1864.97266										-472.61935	489.91586	2341.63525	-306.72113	448.17380	2003.24597	-487.36121	189.34343	2474.24243				
577	5.760	-150.94786	1519.80652	2159.55957	-147.56424	1319.42603	2161.56201							-279.35815	1298.61682	2366.84009				-398.63596	1235.55396	2150.99878	-238.04245	1018.13452	2452.21411							-344.61945	828.88062	2550.61938	-457.02234	812.64917	1864.75061										-479.53955	487.25833	2344.85205	-310.03314	449.48380	2005.65747	-490.69205	183.64284	2474.91821				
578	5.770	-157.67302	1522.27087	2167.50513	-154.51541	1320.18860	2172.14063													-404.47412	1236.24512	2154.66064	-252.47414	1019.41614	2461.95313										-449.15991	808.55841	1862.81628										-486.20880	486.10748	2348.59009	-312.69708	449.66080	2011.74573	-493.75372	179.53360	2475.43311				
579	5.780	-164.99347	1525.11401	2176.49951	-161.79381	1321.54382	2182.34058													-410.54993	1237.35938	2158.70410	-267.27341	1021.50787	2471.14648										-440.18588	803.81598	1863.71057													-316.00586	451.30090	2014.14478	-496.48117	174.13060	2475.25854				
580	5.790	-172.19887	1526.63367	2185.19922	-168.70125	1324.29956	2192.40454													-416.30670	1238.12207	2162.14551	-282.22650	1023.77887	2479.51074										-430.49359	801.03284	1859.52734													-320.63239	450.61957	2022.79126	-498.60745	169.14409	2474.20483				
581	5.800	-179.38345	1528.06091	2193.89209	-175.78485	1326.11658	2201.64526													-422.01428	1239.64673	2166.23657	-297.87634	1026.64185	2488.13013										-420.01532	798.40656	1860.22656													-325.58875	451.37427	2027.33240	-500.93393	165.81488	2473.94702				
582	5.810	-186.90485	1529.65173	2202.96704	-183.01100	1328.29089	2210.10205													-427.59946	1240.56726	2169.72974	-313.34058	1029.36597	2495.71655										-409.10455	796.86816	1858.44312													-331.28281	452.15216	2035.48889	-503.03323	164.45734	2474.54443				
583	5.820	-194.11380	1530.97363	2211.41113	-190.05586	1330.36816	2219.28271													-432.94263	1241.16052	2172.53931													-396.89157	795.33649	1858.88452													-336.90811	452.96173	2040.88794	-504.41980	162.56398	2474.51563				
584	5.830	-201.92230	1532.40063	2220.09766	-196.80806	1332.48425	2228.50146													-438.41360	1242.06689	2176.45923													-384.61444	795.86694	1860.63293													-343.30096	454.63193	2044.37793	-505.64816	161.47188	2474.29346				
585	5.840	-209.49583	1534.25476	2228.72974	-204.01192	1334.60767	2237.20264													-443.42227	1242.97107	2179.95239													-372.22968	795.72864	1862.79492													-350.18259	457.01700	2047.85889	-506.74338	160.72473	2475.42480				
586	5.850	-216.87814	1535.48206	2236.29932	-211.07007	1336.44592	2246.46558													-448.24878	1243.45972	2182.17114													-359.17691	795.65613	1868.24878													-357.23807	458.31735	2054.59229	-507.56671	159.70709	2475.99048				
587	5.860	-224.38492	1537.13574	2244.31836	-217.69548	1338.70569	2255.96802													-452.80994	1243.93945	2184.71484													-346.71579	796.91400	1872.74207													-363.92178	461.50766	2058.06104	-508.19641	158.60298	2477.08252				
588	5.870	-232.04716	1539.56726	2252.08057	-224.00531	1339.91284	2263.04492													-457.25562	1244.59290	2187.24121													-334.21536	796.86145	1878.29004																-508.31918	156.92476	2477.13721				
589	5.880	-240.33740	1541.42371	2260.60498	-230.61195	1341.51196	2270.90063													-461.33545	1245.24866	2189.30371													-322.21622	796.76721	1884.43933																-509.04596	156.07002	2478.45410				
590	5.890	-247.82643	1543.78284	2267.99219	-237.14488	1343.94287	2279.21265													-465.00745	1245.86804	2191.72827													-310.63120	796.72992	1891.08618																-509.04865	154.31532	2478.46460				
591	5.900	-254.91621	1545.52344	2274.10278	-243.55658	1345.43518	2285.67603													-468.78052	1246.34802	2193.10718													-299.78387	797.20361	1898.05640																-509.41260	152.51959	2479.06201				
592	5.910				-249.73889	1347.45349	2293.06641													-471.55515	1246.59985	2194.35352													-289.14310	797.08734	1905.33557																-510.00238	151.22636	2479.61987				
593	5.920				-256.04773	1348.87463	2299.92773													-474.83463	1247.11267	2195.09399													-278.57034	796.88818	1914.80896																-510.10999	150.16492	2479.00317				
594	5.930				-262.23157	1350.61780	2306.64087													-477.42197	1247.39539	2196.49121													-268.86545	797.66528	1920.54785																-510.33887	149.12003	2478.63940				
595	5.940				-267.91849	1352.32642	2313.26440													-480.06305	1247.63440	2197.08984													-256.41779	799.61530	1927.56909																-510.66168	148.55391	2478.01758				
596	5.950				-274.19128	1353.31897	2319.21484													-482.04489	1248.12830	2198.06055													-248.27156	799.93701	1935.92566																-511.33093	148.98067	2477.71338				
597	5.960				-279.59985	1355.21362	2325.10156													-484.09448	1248.60120	2199.22656													-240.57460	801.33606	1943.95984																-511.86938	148.71555	2477.56030				
598	5.970																																		-232.26529	802.87164	1952.69800																-512.32758	147.88748	2476.69214				
599	5.980																																		-224.56297	804.62958	1960.76245																-513.20410	148.09215	2476.76050				
600	5.990																																		-217.06824	806.09113	1967.30396																-514.22522	148.16107	2477.06055				
601	6.000																																		-208.88739	807.63190	1976.59778																-515.76752	147.82191	2477.02881				
602	6.010																																		-202.03450	809.15576	1982.34668																-516.78589	146.82883	2475.52002				
603	6.020																																		-194.58578	810.81415	1990.40125																-518.12317	147.13684	2476.00342				
604	6.030																																		-187.32159	812.58075	1997.77112																-519.64868	147.63062	2476.39526				
605	6.040																																		-180.31548	813.80273	2006.39612																-520.77509	146.57451	2475.27026				
606	6.050																																		-173.93303	815.82385	2014.03699																-522.28369	146.58739	2475.42603				
607	6.060																																		-167.14992	817.54755	2022.46423																						
608	6.070																																		-161.07671	818.56567	2029.72437																						
609	6.080																																		-155.28221	819.98871	2038.54272																						
610	6.090																																		-149.52048	820.59290	2048.16162																						
611	6.100																																		-144.04623	822.00781	2058.47241																						
612	6.110																																		-138.98166	822.51172	2069.17651																						
613	6.120																																		-134.66197	823.22845	2078.00049																						
614	6.130																																		-130.55836	823.99652	2086.78076																						
615	6.140																																		-126.25398	824.83606	2097.58252																						
616	6.150																																		-122.47041	825.24054	2106.55444																						
617	6.160																																		-119.14986	826.04352	2116.22974																						
618	6.170																																		-115.91456	826.79529	2123.31445																						
619	6.180																																		-111.63878	828.46851	2134.59473																						
620	6.190																																		-108.72968	828.94775	2141.74487																						
621	6.200																																		-105.25511	829.61810	2150.19263																						
622	6.210																																		-101.91718	830.59668	2158.23413																						
623	6.220																																		-98.82341	831.08380	2165.56104																						
624	6.230																																		-96.52019	831.38312	2172.18262																						
625	6.240																																		-93.46716	831.96582	2180.92822																						
626	6.250																																		-90.40949	832.42328	2188.86279																						
627	6.260																																		-87.98165	832.99438	2195.19263																						
628	6.270																																		-85.79890	833.12787	2201.71802																						
629	6.280																																		-83.58202	832.99304	2206.82813																						
630	6.290																																		-81.16161	833.17487	2213.00488																						
631	6.300																																		-79.87247	833.23389	2217.07227																						
632	6.310																																		-77.42052	833.03247	2223.51074																						
633	6.320																																		-75.14844	833.65253	2229.36646																						
634	6.330																																		-72.80111	833.22699	2234.36816																						
635	6.340																																		-70.58053	832.81580	2239.02515																						
636	6.350																																		-69.50145	833.08923	2241.77783																						
637	6.360																																		-67.48105	832.74347	2246.84009																						
638	6.370																																		-65.93692	832.63586	2250.86084																						
639	6.380																																		-64.41387	832.55951	2253.71631																						
640	6.390																																		-62.46397	832.37378	2259.15283																						
641	6.400																																		-61.43954	831.97784	2262.47412																						
642	6.410																																		-60.09911	831.34088	2265.51831																						
643	6.420																																		-58.09642	830.64954	2270.39258																						
644	6.430																																		-57.42022	830.09094	2272.00342																						
645	6.440																																		-55.74334	829.19611	2276.65942																						
646	6.450																																		-55.12207	828.31671	2278.05103																						
647	6.460																																		-53.18965	827.27039	2283.12988																						
648	6.470																																		-52.53502	826.43842	2284.52344																						
649	6.480																																		-50.70325	824.96173	2287.57275																						
650	6.490																																		-49.90232	823.93213	2289.56177																						
651	6.500																																		-48.76167	823.01666	2292.99780																						
652	6.510																																		-47.42530	822.78546	2294.23657																						
